<svg version="1.2" xmlns="http://www.w3.org/2000/svg" viewBox="0 0 536 466" width="536" height="466"><defs><clipPath clipPathUnits="userSpaceOnUse" id="cp1"><path d="m0 8c0-4.42 3.58-8 8-8h334c4.42 0 8 3.58 8 8v330c0 4.42-3.58 8-8 8h-334c-4.42 0-8-3.58-8-8z"/></clipPath><clipPath clipPathUnits="userSpaceOnUse" id="cp2"><path d="m440 83.05h-349.78v295.95h349.78z"/></clipPath><clipPath clipPathUnits="userSpaceOnUse" id="cp3"><path d="m438 85.05h-157.82v219.84h157.82z"/></clipPath></defs><style>.a{fill:#e8eaf6}.b{fill:#242a45}.c{opacity:.2;fill:#fff}.d{opacity:.7;fill:#fff}.e{opacity:.3;fill:#fff}.f{fill:#fff}.g{fill:#3a499e}.h{fill:#306299}.i{fill:#fa9e89}.j{opacity:.1}.k{fill:#162f44}.l{fill:#f4f2f9}.m{fill:#e0dfea}.n{fill:#6397d9}.o{fill:#8bbff7}.p{fill:#e4dcf1}.q{fill:#8e2b43}.r{fill:#4ec9b4}.s{opacity:.2;fill:#f4f2f9}.t{fill:#ffdedd}.u{fill:#fc516b}.v{fill:#44ad99}.w{fill:#261f27}.x{fill:#224a7d}.y{fill:#8cc5f2}.z{fill:#9b293f}.A{fill:#f995a9}.B{fill:#51a595}.C{fill:#41877a}.D{fill:#e6846f}.E{fill:#cec3e2}.F{fill:#c3b8d8}</style><path class="a" d="m0 8c0-4.4 3.6-8 8-8h334c4.4 0 8 3.6 8 8v330c0 4.4-3.6 8-8 8h-334c-4.4 0-8-3.6-8-8z"/><g clip-path="url(#cp1)"><path fill-rule="evenodd" class="b" d="m-3.5 0.2h547v59h-547z"/><path class="c" d="m38.5 46.2c-8.9 0-16-7.2-16-16 0-8.9 7.1-16 16-16 8.8 0 16 7.1 16 16 0 8.8-7.2 16-16 16z"/><path class="d" d="m69.5 23.2c0-1.7 1.3-3 3-3h114c1.6 0 3 1.3 3 3 0 1.7-1.4 3-3 3h-114c-1.7 0-3-1.3-3-3z"/><path class="e" d="m69.5 37.2c0-1.7 1.3-3 3-3h58c1.6 0 3 1.3 3 3 0 1.7-1.4 3-3 3h-58c-1.7 0-3-1.3-3-3z"/></g><path class="f" d="m27 93c0-4.4 3.6-8 8-8h221c4.4 0 8 3.6 8 8v18c0 4.4-3.6 8-8 8h-221c-4.4 0-8-3.6-8-8z"/><path class="f" d="m27 141c0-4.4 3.6-8 8-8h221c4.4 0 8 3.6 8 8v18c0 4.4-3.6 8-8 8h-221c-4.4 0-8-3.6-8-8z"/><path class="f" d="m27 189c0-4.4 3.6-8 8-8h221c4.4 0 8 3.6 8 8v18c0 4.4-3.6 8-8 8h-221c-4.4 0-8-3.6-8-8z"/><path class="f" d="m27 237c0-4.4 3.6-8 8-8h221c4.4 0 8 3.6 8 8v18c0 4.4-3.6 8-8 8h-221c-4.4 0-8-3.6-8-8z"/><path class="f" d="m27 285c0-4.4 3.6-8 8-8h221c4.4 0 8 3.6 8 8v18c0 4.4-3.6 8-8 8h-221c-4.4 0-8-3.6-8-8z"/><g clip-path="url(#cp2)"><path fill-rule="evenodd" class="g" d="m91.3 333.3q1 3.1 3.2 6c25.2 33.4 119.3 44.6 212.2 37.8 48.5-3.6 82.7-24.5 104.3-43.8q1.7-1.5 3.4-3.1 1.8-1.6 3.4-3.3 1.7-1.6 3.3-3.3 1.7-1.7 3.2-3.5c4.7-5.1 8.3-10.8 10.9-16.9 7.7-17.8 6.2-38.3-5.1-55.1-9.6-14.3-22.7-24.9-29.5-36.6-12.9-22.3 55.4-78.7 11-114.4-15.8-12.5-49.2-15.4-85.7-13.5-44.4 2.4-93.4 12-120.3 20-55.7 16.8-90.6 41-98.5 68.3-8 27.3 13.3 39.6 31.8 65.7 17.5 24.5-58.5 63-47.6 95.7z"/></g><path fill-rule="evenodd" class="h" d="m185.5 173.9l16.9-2.9 2.6 15.8-21 6.2z"/><path fill-rule="evenodd" class="i" d="m203 172.1c0 0 13.2-0.3 27-6.1l-6.5 12.3-18.7 5.7z"/><g clip-path="url(#cp3)"><path fill-rule="evenodd" class="c" d="m280.9 137.2c8.1 40.1 146 101.7 152.7 167.7 7.1-17.8 5.7-38.3-4.8-55.1-8.9-14.2-21.1-24.8-27.5-36.5-12-22.3 51.6-78.6 10.2-114.2-14.6-12.5-45.7-15.4-79.7-13.5-10.4 2.4-58.2 15.3-50.9 51.6z"/></g><path fill-rule="evenodd" class="j" d="m88.2 326c-1 7.9 2.3 13.3 3.6 15.2 22.4 32.7 144.5 43.6 227.1 36.9 43.2-3.4 78.6-25.7 100.1-50.2z"/><path fill-rule="evenodd" class="j" d="m366.4 329.8c0 0 10.1 0.6 9.9 3.7-0.2 3-6.5 9.7-6.5 9.7l9.5-3.4 28.7-1.1-3.1 2.7c0 0-23.1 1.1-24.2 1.9-1 0.8-14.2 10.8-16.5 11.2-2.3 0.4-146.7 0.2-146.7 0.2 0 0-14.8 0.6-17.3-4-2.5-4.6-11.5-4.3-14-0.3-2.5 4-2.1 18.6-2.1 18.6 0 0-6.8-1.8-7.2-1.9-23.5-10-49.9-41.1-49.9-41.1z"/><path fill-rule="evenodd" class="k" d="m397 290.7l-14.4 49.2c0 0-2.1 2.4-3.6 0.1l9.7-50zm19.9-1.7l7.1 33.1-3.4 3.9-9.6-36z"/><path fill-rule="evenodd" class="l" d="m204.5 300.1l-6 34.2-1 5.7 2.2 0.3h0.1l4.8 0.7c0 0 16-39.3 17.3-48.8 1.4-9.4-25.1-47.2-25.1-47.2l-28.8 2.4c-0.7 8.3 10.8 23.8 21.1 35.8 8.1 9.5 15.4 16.9 15.4 16.9z"/><path fill-rule="evenodd" class="m" d="m204.1 298.5l-6.9 39.8 2.2 0.3 0.1 0.4v-0.4c0.9-3.8 11.2-37.7 11.5-44.6 0.3-7.3-14-30-14-30l-8 17.7c7.9 9.5 15.1 16.8 15.1 16.8z"/><path fill-rule="evenodd" class="n" d="m166 249l28.7-2.4 1.3-47.7c0 0-7-24.9-14.7-24.9-4.5 0-9 1.8-11.7 6.2-1.8 3-2.9 7.2-2.6 12.9 0.6 12.8-0.7 48.9-1 55q0 0.9 0 0.9z"/><path fill-rule="evenodd" class="o" d="m173.9 245.3l-0.6-56.8 6.7-13.6-7.8-0.9-2.7 3.2c-1.8 3-2.8 7.2-2.5 12.9 0.6 12.8-0.8 49.8-1 55.9z"/><path fill-rule="evenodd" class="h" d="m174 190l21 40 0.6-18 0.4-14.6-17.5-7.4z"/><path fill-rule="evenodd" class="f" d="m227.7 353h128.6c4.8 0 8.7-3.9 8.7-8.7v-220.6c0-4.8-3.9-8.7-8.7-8.7h-128.6c-4.8 0-8.7 3.9-8.7 8.7v220.6c0 4.8 3.9 8.7 8.7 8.7z"/><path fill-rule="evenodd" class="p" d="m227 146.3v88.4c0 1.8 1.5 3.3 3.3 3.3h123.4c1.8 0 3.3-1.5 3.3-3.3v-88.4c0-1.8-1.5-3.3-3.3-3.3h-123.4c-1.8 0-3.3 1.5-3.3 3.3z"/><path fill-rule="evenodd" class="q" d="m291.1 167l1.6 1.2 3.3 14.4-0.1 2.3-5.2 0.1q-0.5 0-1-0.3c-1.5-0.8-2.2-3.3-1.3-5.4 0.4-1.2 1.5-3.3 1.7-4.2 0.3-2.2 1-8.1 1-8.1z"/><path fill-rule="evenodd" class="r" d="m264 241l54.2-0.2h1.8c0 0 6.5-30.7-4-42.5-2.6-2.8-5.9-5-9.5-6.3-11.3-4.3-25.5-1.5-28.5 7.9-4 12.5-14 41.1-14 41.1z"/><path fill-rule="evenodd" class="i" d="m306.2 192.5c0 0-2.3 6-7.1 7.3-4.9 1.3-10.5-3.2-10.1-8.5 0 0 4.7-0.7 5.5-2.9 0.9-2.8 0.3-2.9 0.3-2.9 0 0-1.9-3.5-2.5-6-0.6-2.6 0.3-12.4 4.6-13.3 2.7-0.6 7 0.3 10.1 4.7 0 0-1.5 8.6-3.7 12.7-2.1 4.1-3.2 6 2.9 8.9z"/><path fill-rule="evenodd" class="s" d="m230.2 116l132.8 186.2v42.3c0 4.7-3.7 8.5-8.3 8.5h-120.1c-5.3 0-9.6-4.4-9.6-9.9v-223.3c0-2.9 2.3-3.9 5.2-3.8z"/><path fill-rule="evenodd" class="r" d="m270 222.4l-7-30.4-11 1.8 10.7 44.2z"/><path fill-rule="evenodd" class="i" d="m260.8 191.1l-0.6-3.1c0 0 1.8-1.2 1.5-2.9-0.3-1.8 0.3-5.9 0.3-5.9 0 0-1-0.7-1.6 0.5-0.4 0.8-1.1 2.7-1.1 2.7 0 0-2.3-6.2-2.8-7.8-0.3-0.7-0.5-1.7-1-1.6-0.3 0.1-0.2 0.7-0.1 1.3 0.1 1.9 0.9 4.8 0.9 4.8l-0.4 0.3-1.7-5.3c0-0.3-0.2-0.7-0.4-0.7-0.3 0-0.5 0.1-0.5 0.7 0 1.2 1.3 6.1 1.3 6.1l-0.3 0.2-2-4.3c-0.1-0.3-0.6-0.3-0.7 0.1 0 0.3 0 0.6 0.2 1.2 0.6 1.5 1.2 3.8 1.2 3.8l-0.2 0.2-1-2.2c-0.2-0.3-0.7-0.5-0.8-0.2-0.2 0.5 1.5 5 1.5 5.3 0 0.3 1.1 4.3 2.3 4.6 1.2 0.3 1.3 3.1 1.3 3.1z"/><path fill-rule="evenodd" class="t" d="m330.4 264h22.2c1.3 0 2.4-1.1 2.4-2.4v-3.2c0-1.3-1.1-2.4-2.4-2.4h-22.2c-1.3 0-2.4 1.1-2.4 2.4v3.2c0 1.3 1.1 2.4 2.4 2.4zm-32 0h22.2c1.3 0 2.4-1.1 2.4-2.4v-3.2c0-1.3-1.1-2.4-2.4-2.4h-22.2c-1.3 0-2.4 1.1-2.4 2.4v3.2c0 1.3 1.1 2.4 2.4 2.4zm-34 0h22.2c1.3 0 2.4-1.1 2.4-2.4v-3.2c0-1.3-1.1-2.4-2.4-2.4h-22.2c-1.3 0-2.4 1.1-2.4 2.4v3.2c0 1.3 1.1 2.4 2.4 2.4zm-32 0h22.3c1.2 0 2.3-1.1 2.3-2.4v-3.2c0-1.3-1.1-2.4-2.3-2.4h-22.3c-1.3 0-2.4 1.1-2.4 2.4v3.2c0 1.3 1.1 2.4 2.4 2.4z"/><path fill-rule="evenodd" class="l" d="m232 280.6v-3.2c0-1.3 1.1-2.4 2.5-2.4h118c1.4 0 2.5 1.1 2.5 2.4v3.2c0 1.3-1.1 2.4-2.5 2.4h-118c-1.4 0-2.5-1.1-2.5-2.4zm2.5 18.4c-1.4 0-2.5-1.1-2.5-2.4v-3.2c0-1.3 1.1-2.4 2.5-2.4h118c1.4 0 2.5 1.1 2.5 2.4v3.2c0 1.3-1.1 2.4-2.5 2.4zm-2.4 13.6v-3.2c0-1.3 1.1-2.4 2.5-2.4h117.9c1.5 0 2.6 1.1 2.6 2.4v3.2c0 1.3-1.1 2.4-2.6 2.4h-117.9c-1.4 0-2.5-1.1-2.5-2.4zm0 13v-3.2c0-1.3 1.1-2.4 2.5-2.4h117.9c1.5 0 2.6 1.1 2.6 2.4v3.2c0 1.3-1.1 2.4-2.6 2.4h-117.9c-1.4 0-2.5-1.1-2.5-2.4z"/><path fill-rule="evenodd" class="u" d="m309.2 163.3c0 0-6.3-8.8-18.2-3.7-11.9 5.1 1 13.5 1 13.5 0 0 0.3-3.3 2.2-4.2l-0.2 2.9 6.7 1.2 1.1-2.8 0.6 3.2 3.4 1.2c0 0-2.8 9.6-4.4 11 0 0-0.6 2.3-0.4 2.7 0.2 0.5 10.4 3.1 11.7 0.7 1.2-2.3-1.4-5.6-2.3-7.7-0.8-2.2 1.6-13.7-1.2-18z"/><path fill-rule="evenodd" class="p" d="m338.4 139h17.2c1.3 0 2.4-1.3 2.4-3 0-1.7-1.1-3-2.4-3h-17.2c-1.3 0-2.4 1.3-2.4 3 0 1.7 1.1 3 2.4 3z"/><path fill-rule="evenodd" class="v" d="m312 211c0 0-2.7 19.3-5.7 27h-16.1c0 0-2.6-8.1 10.1-10.8 8.8-1.9 11.7-16.2 11.7-16.2zm-31.6-5c0 0-3.3 10-2.7 13 0.7 3 3.3 5.2 3.3 7.2 0 2-1.6 9.6-1.6 9.6l-9.4 0.2c0 0 1.6-0.3 5.1-3.1 5.4-4.2 0.8-13.6 1.9-18.9 0.6-2.8 3.4-8 3.4-8zm-10.4 15.8c0 0-0.2 8.4-1.9 7.1-1.7-1.3-0.7-13.8-2.1-18.1-1.5-4.3-6-18-6-18l3.8-0.8z"/><path fill-rule="evenodd" class="i" d="m244.6 183.5c0 0-1.6 0.7-3.5 3-0.6 0.8-4 2-4.8 3-11.7 14-27.2 24.8-37.2 20.5-12.7-5.5-15.1-10.6-15.1-10.6l8.4-11.3c0 0 9.7 14.7 17.4 10.7 7.8-4 23.1-14.6 23.1-14.6l0.4-6.4c0 0 0.9-0.3 1.4 1 0.4 1.2 0.4 2.3 0.4 2.3l6.1-7c0 0 1.1-0.4 0.8 0.7-0.4 1.2-2.5 4.4-2.5 4.4 0 0-0.2 0.6 0.2 0.3 0.6-0.3 4.8-5.1 4.8-5.1 0 0 1 0 0.6 0.9-0.3 0.7-2.9 4.1-3.8 5.4-0.2 0.3 0.3 0.2 0.3 0.2l3.5-3c0.5-0.3 1-0.2 0.9 0.4-0.1 0.4-1 1.5-1.6 1.9-1.4 1.1-2.4 3-2.4 3l3-1.1c0 0 0.6 0.5-0.4 1.4zm-54-36c0 0 2.1 15.1 1.2 18.3-0.9 3.2-6.5 2.6-6.5 2.6 0 0 0 2 0.9 4.1 0.3 0.9 1.2 2 1.9 2.9 0.8 0.9 1.4 1.6 1.4 1.6l-12.6-2.2-3.9-28.3c15.1-8.4 17.6 1 17.6 1z"/><path fill-rule="evenodd" class="w" d="m183.6 146.8c0 0 6.2 4.7 12.2 0.7 0 0-3.8-0.3-4.9-2.3 0 0 2.3 0.7 5.1-3.3 0 0-4.9 0.7-6.6-0.8-1.7-1.4-10.3-3.8-15.4-0.2-5.1 3.6-5 6.2-5 6.2 0 0-3.1 1.1-3 2.9 0.1 1.7 7.5 16 7.5 16l1.6-6.4c0 0-1.3 0.4-2-2.6-0.8-2.9 2.5-1.6 2.8-1 0.4 0.6 2.6-4.2 2.6-4.2l-0.4-2.8c0 0-1.1-3.6 5.5-2.2z"/><path fill-rule="evenodd" class="f" d="m171.8 279.4c3.6 14.5-3.1 72.4-3.1 72.4l6.5 1.2c26.2-60 20.2-109 20.2-109l-29.4 2.4c0 0 0.1-1.2 0.1-0.9 0.3 3 2.4 20.7 5.7 33.9z"/><path fill-rule="evenodd" class="n" d="m197.1 336l-2.1 5.8 13.1 5.2 7.9-0.1c0 0-0.1-1.6-0.6-2.9-0.6-1.4-3.6-1.1-3.6-1.1l-7.5-5.8zm-29.7 17l-1.4 5.1c0 0 5.2 5.9 8.6 8.9 3.5 3.1 8.5 4 8.5 4 0 0 1.4-1.7 0.7-4.2-0.9-2.9-3.1-3.4-4-4.6-2.7-3.6-5.3-7.9-5.3-7.9z"/><path fill-rule="evenodd" class="x" d="m374 282c0 3.9 13 7 29 7 16 0 29-3.1 29-7 0-3.9-13-7-29-7-16 0-29 3.1-29 7z"/><path fill-rule="evenodd" class="n" d="m374 281c0 3.9 13 7 29 7 16 0 29-3.1 29-7 0-3.9-13-7-29-7-16 0-29 3.1-29 7z"/><path fill-rule="evenodd" class="k" d="m407 274c6.6 0 12 1.3 12 3 0 1.7-5.4 3-12 3-6.6 0-12-1.3-12-3 0-1.7 5.4-3 12-3zm25 6v4c0 0-0.1 2.4-5 4l1.2-4.3c0 0 3.4-1.5 3.8-3.7z"/><path fill-rule="evenodd" class="y" d="m374 280v4.1c0 0-0.4 2 5 3.9l-1.7-4.8c0 0-2.8-1.2-3.3-3.2z"/><path fill-rule="evenodd" class="u" d="m393 267l2 7.7c0.5 1.9 2.4 3.3 4.6 3.3h4.3c1.5 0 3-0.7 3.9-1.8q0.1-0.1 0.2-0.3 0.1-0.1 0.2-0.3 0-0.1 0.1-0.3 0.1-0.2 0.1-0.4l1.8-5.3 0.8-2.6z"/><path fill-rule="evenodd" class="z" d="m393 266c0 0.6 4 1 9 1 5 0 9-0.4 9-1 0-0.6-4-1-9-1-5 0-9 0.4-9 1z"/><path fill-rule="evenodd" class="A" d="m405.4 276.7q-0.5 0.2-1 0.3l2.1-0.3q0.1-0.2 0.2-0.3 0.1-0.2 0.2-0.4 0.1-0.1 0.2-0.3 0-0.2 0.1-0.4l1.6-5.6c0.1-0.3 0.2-0.7 0.2-0.7 0 0-4.2 1.2-8 0.8 1.2 0.2 4.3 0.4 6.2 0.3q0.1 0 0.3 0.1 0.1 0 0.2 0.2 0.2 0.1 0.2 0.2 0.1 0.2 0 0.4c-0.2 1.6-0.9 5-2.5 5.7z"/><path fill-rule="evenodd" class="B" d="m401 263.9l0.7 3.1h0.5c0 0 0-3.1 3.6-5 3.7-1.9 3.2-9 3.2-9-0.1 0.2-1.5 3.1-2.6 3.3-1.1 0.2-1.8 1.9-1.8 1.9 0 0-0.5 0.8-1.1 0.6-0.6-0.1-1.2 1.5-1.2 1.5l-0.3 1.8z"/><path fill-rule="evenodd" class="r" d="m406 270c0 0 0.7-23.4-11.6-30 0 0-3.5 1.4 0.6 7 4.1 5.6 0.8 9.6 2.6 11.1 1.8 1.4 4.4 2.4 4 4.3-0.4 1.8 0.1 3.7 0.9 3.9 0.8 0.2 2.6 1.3 2.9 3.7z"/><path fill-rule="evenodd" class="C" d="m406 265.8v1.2h0.6c0 0 0-3.1 4-5 3.9-1.9 3.4-9 3.4-9l-0.4 1.1c0 6.4-3.7 7.8-5.2 8.6-1.5 0.9-2.4 3.1-2.4 3.1z"/><path fill-rule="evenodd" class="h" d="m186.2 177.1c0 0-10.6 0.2-11.5-1.1l-0.7 1.9c0 0 8.4 4.6 14 2.6z"/><path fill-rule="evenodd" class="y" d="m201 190.9l-12.6 14.1c0 0-16.8-15.1-16.4-19.8 0.4-4.7 6.6-14.5 16-5.5 9.2 8.7 13 11.2 13 11.2z"/><path fill-rule="evenodd" class="l" d="m168.6 352.7l2.5 0.3c0 0 12.1-42.5 8.1-73.8-1.2-9.5-5.3-33.2-5.3-33.2l-7.9 0.7c0.3 3.1 2.4 19.9 5.4 33.2 3.4 14.5-2.8 72.8-2.8 72.8z"/><path fill-rule="evenodd" class="D" d="m182.3 175.6c1.4 0.3 2.3 0.4 2.7 0.4-0.7-1-1.5-2.2-1.8-3.2-0.8-2.2-0.8-4.3-0.8-4.3 0 0-3-0.8-3.3-0.4-0.3 0.4 0 6.8 3.2 7.5z"/><path fill-rule="evenodd" class="E" d="m328 179c0 10.5 8 19 18 19 4.1 0 8-1.5 11-4v-30c-3-2.5-6.9-4-11-4-10 0-18 8.5-18 19z"/><path fill-rule="evenodd" class="F" d="m328 179.5c0 10.2 7.5 18.5 16.7 18.5 3.9 0 7.5-1.5 10.3-3.9v-29.2c-2.8-2.4-6.4-3.9-10.3-3.9-9.2 0-16.7 8.3-16.7 18.5z"/><path fill-rule="evenodd" class="v" d="m302 196.1c0 0 2-1.1 2.3-1.3 0.3-0.2 4.4 0.9 9.8 6.5 5.5 5.6 0.8 10.3 3.1 13.3 2.3 3 0.1 9.4-1.1 13.7-1.1 4.3 0 9.7 0 9.7h0.1 1.8c0 0 6.6-28.9-4.1-40-2.6-2.7-6-4.7-9.6-6z"/></svg>