<svg version="1.2" xmlns="http://www.w3.org/2000/svg" viewBox="0 0 536 466" width="536" height="466"><defs><clipPath clipPathUnits="userSpaceOnUse" id="cp1"><path d="m0 8c0-4.42 3.58-8 8-8h334c4.42 0 8 3.58 8 8v330c0 4.42-3.58 8-8 8h-334c-4.42 0-8-3.58-8-8z"/></clipPath></defs><style>.a{fill:#e8eaf6}.b{fill:#242a45}.c{opacity:.2;fill:#fff}.d{opacity:.7;fill:#fff}.e{opacity:.3;fill:#fff}.f{fill:#fff}.g{opacity:.5;fill:#242a45}.h{fill:#5267df}.i{opacity:.3;fill:#242a45}.j{fill:#fa5959}.k{opacity:.2;fill:#495dcf;stroke:#5267df;stroke-width:20}.l{fill:none;stroke:#5267df;stroke-linecap:round;stroke-linejoin:round;stroke-width:20}</style><path class="a" d="m0 8c0-4.4 3.6-8 8-8h334c4.4 0 8 3.6 8 8v330c0 4.4-3.6 8-8 8h-334c-4.4 0-8-3.6-8-8z"/><g clip-path="url(#cp1)"><path fill-rule="evenodd" class="b" d="m-3.5 0.2h547v59h-547z"/><path class="c" d="m38.5 46.2c-8.9 0-16-7.2-16-16 0-8.9 7.1-16 16-16 8.8 0 16 7.1 16 16 0 8.8-7.2 16-16 16z"/><path class="d" d="m69.5 23.2c0-1.7 1.3-3 3-3h114c1.6 0 3 1.3 3 3 0 1.7-1.4 3-3 3h-114c-1.7 0-3-1.3-3-3z"/><path class="e" d="m69.5 37.2c0-1.7 1.3-3 3-3h58c1.6 0 3 1.3 3 3 0 1.7-1.4 3-3 3h-58c-1.7 0-3-1.3-3-3z"/></g><path  d="m27 146c0-4.4 3.6-8 8-8h184c4.4 0 8 3.6 8 8v239c0 4.4-3.6 8-8 8h-184c-4.4 0-8-3.6-8-8z"/><path class="f" d="m27 146c0-4.4 3.6-8 8-8h184c4.4 0 8 3.6 8 8v239c0 4.4-3.6 8-8 8h-184c-4.4 0-8-3.6-8-8z"/><path class="g" d="m95.7 176c0-1.7 1.3-3 3-3h95.3c1.7 0 3 1.3 3 3 0 1.7-1.3 3-3 3h-95.3c-1.7 0-3-1.3-3-3z"/><path class="h" d="m66 199c-8.8 0-16-7.2-16-16 0-8.8 7.2-16 16-16 8.8 0 16 7.2 16 16 0 8.8-7.2 16-16 16z"/><path class="i" d="m95.7 190c0-1.7 1.3-3 3-3h48c1.7 0 3 1.3 3 3 0 1.7-1.3 3-3 3h-48c-1.7 0-3-1.3-3-3z"/><path class="h" d="m66 255c-8.8 0-16-7.2-16-16 0-8.8 7.2-16 16-16 8.8 0 16 7.2 16 16 0 8.8-7.2 16-16 16z"/><path class="g" d="m95.7 232c0-1.7 1.3-3 3-3h95.3c1.7 0 3 1.3 3 3 0 1.7-1.3 3-3 3h-95.3c-1.7 0-3-1.3-3-3z"/><path class="i" d="m95.7 246c0-1.7 1.3-3 3-3h48c1.7 0 3 1.3 3 3 0 1.7-1.3 3-3 3h-48c-1.7 0-3-1.3-3-3z"/><path class="h" d="m66 311c-8.8 0-16-7.2-16-16 0-8.8 7.2-16 16-16 8.8 0 16 7.2 16 16 0 8.8-7.2 16-16 16z"/><path class="g" d="m95.7 288c0-1.7 1.3-3 3-3h95.3c1.7 0 3 1.3 3 3 0 1.7-1.3 3-3 3h-95.3c-1.7 0-3-1.3-3-3z"/><path class="i" d="m95.7 302c0-1.7 1.3-3 3-3h48c1.7 0 3 1.3 3 3 0 1.7-1.3 3-3 3h-48c-1.7 0-3-1.3-3-3z"/><path class="h" d="m66 367c-8.8 0-16-7.2-16-16 0-8.8 7.2-16 16-16 8.8 0 16 7.2 16 16 0 8.8-7.2 16-16 16z"/><path class="g" d="m95.7 344c0-1.7 1.3-3 3-3h95.3c1.7 0 3 1.3 3 3 0 1.7-1.3 3-3 3h-95.3c-1.7 0-3-1.3-3-3z"/><path class="i" d="m95.7 358c0-1.7 1.3-3 3-3h48c1.7 0 3 1.3 3 3 0 1.7-1.3 3-3 3h-48c-1.7 0-3-1.3-3-3z"/><path  d="m251 146c0-4.4 3.6-8 8-8h184c4.4 0 8 3.6 8 8v239c0 4.4-3.6 8-8 8h-184c-4.4 0-8-3.6-8-8z"/><path class="f" d="m251 146c0-4.4 3.6-8 8-8h184c4.4 0 8 3.6 8 8v239c0 4.4-3.6 8-8 8h-184c-4.4 0-8-3.6-8-8z"/><path class="g" d="m319.7 176c0-1.7 1.3-3 3-3h95.3c1.7 0 3 1.3 3 3 0 1.7-1.3 3-3 3h-95.3c-1.7 0-3-1.3-3-3z"/><path class="h" d="m290 199c-8.8 0-16-7.2-16-16 0-8.8 7.2-16 16-16 8.8 0 16 7.2 16 16 0 8.8-7.2 16-16 16z"/><path class="i" d="m319.7 190c0-1.7 1.3-3 3-3h48c1.7 0 3 1.3 3 3 0 1.7-1.3 3-3 3h-48c-1.7 0-3-1.3-3-3z"/><path class="j" d="m290 255c-8.8 0-16-7.2-16-16 0-8.8 7.2-16 16-16 8.8 0 16 7.2 16 16 0 8.8-7.2 16-16 16z"/><path class="g" d="m319.7 232c0-1.7 1.3-3 3-3h95.3c1.7 0 3 1.3 3 3 0 1.7-1.3 3-3 3h-95.3c-1.7 0-3-1.3-3-3z"/><path class="i" d="m319.7 246c0-1.7 1.3-3 3-3h48c1.7 0 3 1.3 3 3 0 1.7-1.3 3-3 3h-48c-1.7 0-3-1.3-3-3z"/><path class="h" d="m290 311c-8.8 0-16-7.2-16-16 0-8.8 7.2-16 16-16 8.8 0 16 7.2 16 16 0 8.8-7.2 16-16 16z"/><path class="g" d="m319.7 288c0-1.7 1.3-3 3-3h95.3c1.7 0 3 1.3 3 3 0 1.7-1.3 3-3 3h-95.3c-1.7 0-3-1.3-3-3z"/><path class="i" d="m319.7 302c0-1.7 1.3-3 3-3h48c1.7 0 3 1.3 3 3 0 1.7-1.3 3-3 3h-48c-1.7 0-3-1.3-3-3z"/><path class="h" d="m290 367c-8.8 0-16-7.2-16-16 0-8.8 7.2-16 16-16 8.8 0 16 7.2 16 16 0 8.8-7.2 16-16 16z"/><path class="g" d="m319.7 344c0-1.7 1.3-3 3-3h95.3c1.7 0 3 1.3 3 3 0 1.7-1.3 3-3 3h-95.3c-1.7 0-3-1.3-3-3z"/><path class="i" d="m319.7 358c0-1.7 1.3-3 3-3h48c1.7 0 3 1.3 3 3 0 1.7-1.3 3-3 3h-48c-1.7 0-3-1.3-3-3z"/><path class="f" d="m27 93c0-4.4 3.6-8 8-8h221c4.4 0 8 3.6 8 8v18c0 4.4-3.6 8-8 8h-221c-4.4 0-8-3.6-8-8z"/><path class="k" d="m372 236c-37.1 0-67-29.9-67-67 0-37.1 29.9-67 67-67 37.1 0 67 29.9 67 67 0 37.1-29.9 67-67 67z"/><path fill-rule="evenodd" class="l" d="m419 217l49 49"/></svg>