<svg version="1.2" xmlns="http://www.w3.org/2000/svg" viewBox="0 0 657 466" width="657" height="466"><defs><linearGradient id="P" gradientUnits="userSpaceOnUse"/><linearGradient id="g1" x1="610.1" y1="285.2" x2="56.1" y2="122.3" href="#P"><stop stop-color="#151515"/><stop offset="1" stop-color="#3d3d3d"/></linearGradient><clipPath clipPathUnits="userSpaceOnUse" id="cp1"><path d="m60.53 36.8c0-4.42 3.58-8 8-8h520c4.42 0 8 3.58 8 8v330c0 4.42-3.58 8-8 8h-520c-4.42 0-8-3.58-8-8z"/></clipPath><clipPath clipPathUnits="userSpaceOnUse" id="cp2"><path d="m60.53 36.8c0-4.42 3.58-8 8-8h520c4.42 0 8 3.58 8 8v330c0 4.42-3.58 8-8 8h-520c-4.42 0-8-3.58-8-8z"/></clipPath></defs><style>.a{fill:url(#g1)}.b{opacity:.1;fill:#2a2a2a}.c{fill:#e8eaf6}.d{fill:#5267df}.e{opacity:.2;fill:#fff}.f{opacity:.1;fill:#fff}.g{opacity:.7;fill:#fff}.h{opacity:.3;fill:#fff}.i{fill:#fff}.j{opacity:.5;fill:#242a45}.k{fill:#f98e5d}.l{opacity:.3;fill:#242a45}.m{fill:#6ac6d6}.n{fill:#a47ed4}.o{fill:#ec7878}</style><path class="a" d="m41.5 36.5c0-13.8 11.2-25 25-25h524.2c13.8 0 25 11.2 25 25v331.9c0 13.8-11.2 25-25 25h-524.2c-13.8 0-25-11.2-25-25z"/><path class="b" d="m93.5 30.8c0-2.8 2.3-5 5-5h461.5c2.8 0 5 2.2 5 5v343.8c0 2.7-2.2 5-5 5h-461.5c-2.7 0-5-2.3-5-5z"/><path class="c" d="m60.5 36.8c0-4.4 3.6-8 8-8h520c4.4 0 8 3.6 8 8v330c0 4.4-3.6 8-8 8h-520c-4.4 0-8-3.6-8-8z"/><g clip-path="url(#cp1)"><path fill-rule="evenodd" class="d" d="m57 29h547v59h-547z"/><path class="e" d="m99 75c-8.8 0-16-7.2-16-16 0-8.8 7.2-16 16-16 8.8 0 16 7.2 16 16 0 8.8-7.2 16-16 16z"/><path class="f" d="m560 75c-8.8 0-16-7.2-16-16 0-8.8 7.2-16 16-16 8.8 0 16 7.2 16 16 0 8.8-7.2 16-16 16z"/><path class="g" d="m130 52c0-1.7 1.3-3 3-3h114c1.7 0 3 1.3 3 3 0 1.7-1.3 3-3 3h-114c-1.7 0-3-1.3-3-3z"/><path class="h" d="m130 66c0-1.7 1.3-3 3-3h58c1.7 0 3 1.3 3 3 0 1.7-1.3 3-3 3h-58c-1.7 0-3-1.3-3-3z"/></g><g clip-path="url(#cp2)"><path class="i" d="m117.5 129.8c0-4.4 3.6-8 8-8h245c4.4 0 8 3.6 8 8v300c0 4.4-3.6 8-8 8h-245c-4.4 0-8-3.6-8-8z"/><path class="i" d="m412.5 129.8c0-4.4 3.6-8 8-8h112c4.4 0 8 3.6 8 8v300c0 4.4-3.6 8-8 8h-112c-4.4 0-8-3.6-8-8z"/><path class="j" d="m196 163c0-1.7 1.3-3 3-3h114c1.7 0 3 1.3 3 3 0 1.7-1.3 3-3 3h-114c-1.7 0-3-1.3-3-3z"/></g><path class="k" d="m165 186c-8.8 0-16-7.2-16-16 0-8.8 7.2-16 16-16 8.8 0 16 7.2 16 16 0 8.8-7.2 16-16 16z"/><path class="l" d="m433 147c0-1.7 1.3-3 3-3h82c1.7 0 3 1.3 3 3 0 1.7-1.3 3-3 3h-82c-1.7 0-3-1.3-3-3z"/><path class="l" d="m433 167c0-1.7 1.3-3 3-3h82c1.7 0 3 1.3 3 3 0 1.7-1.3 3-3 3h-82c-1.7 0-3-1.3-3-3z"/><path class="l" d="m433 187c0-1.7 1.3-3 3-3h82c1.7 0 3 1.3 3 3 0 1.7-1.3 3-3 3h-82c-1.7 0-3-1.3-3-3z"/><path class="l" d="m433 207c0-1.7 1.3-3 3-3h82c1.7 0 3 1.3 3 3 0 1.7-1.3 3-3 3h-82c-1.7 0-3-1.3-3-3z"/><path class="l" d="m433 241c0-1.7 1.3-3 3-3h82c1.7 0 3 1.3 3 3 0 1.7-1.3 3-3 3h-82c-1.7 0-3-1.3-3-3z"/><path class="l" d="m433 261c0-1.7 1.3-3 3-3h82c1.7 0 3 1.3 3 3 0 1.7-1.3 3-3 3h-82c-1.7 0-3-1.3-3-3z"/><path class="l" d="m433 281c0-1.7 1.3-3 3-3h82c1.7 0 3 1.3 3 3 0 1.7-1.3 3-3 3h-82c-1.7 0-3-1.3-3-3z"/><path class="l" d="m196 177c0-1.7 1.3-3 3-3h58c1.7 0 3 1.3 3 3 0 1.7-1.3 3-3 3h-58c-1.7 0-3-1.3-3-3z"/><path class="m" d="m165 242c-8.8 0-16-7.2-16-16 0-8.8 7.2-16 16-16 8.8 0 16 7.2 16 16 0 8.8-7.2 16-16 16z"/><path class="j" d="m196 219c0-1.7 1.3-3 3-3h114c1.7 0 3 1.3 3 3 0 1.7-1.3 3-3 3h-114c-1.7 0-3-1.3-3-3z"/><path class="l" d="m196 233c0-1.7 1.3-3 3-3h58c1.7 0 3 1.3 3 3 0 1.7-1.3 3-3 3h-58c-1.7 0-3-1.3-3-3z"/><path class="n" d="m165 298c-8.8 0-16-7.2-16-16 0-8.8 7.2-16 16-16 8.8 0 16 7.2 16 16 0 8.8-7.2 16-16 16z"/><path class="j" d="m196 275c0-1.7 1.3-3 3-3h114c1.7 0 3 1.3 3 3 0 1.7-1.3 3-3 3h-114c-1.7 0-3-1.3-3-3z"/><path class="l" d="m196 289c0-1.7 1.3-3 3-3h58c1.7 0 3 1.3 3 3 0 1.7-1.3 3-3 3h-58c-1.7 0-3-1.3-3-3z"/><path class="o" d="m165 354c-8.8 0-16-7.2-16-16 0-8.8 7.2-16 16-16 8.8 0 16 7.2 16 16 0 8.8-7.2 16-16 16z"/><path class="j" d="m196 331c0-1.7 1.3-3 3-3h114c1.7 0 3 1.3 3 3 0 1.7-1.3 3-3 3h-114c-1.7 0-3-1.3-3-3z"/><path class="l" d="m196 345c0-1.7 1.3-3 3-3h58c1.7 0 3 1.3 3 3 0 1.7-1.3 3-3 3h-58c-1.7 0-3-1.3-3-3z"/></svg>