<svg version="1.2" xmlns="http://www.w3.org/2000/svg" viewBox="0 0 536 466" width="536" height="466"><defs><clipPath clipPathUnits="userSpaceOnUse" id="cp1"><path d="m0 8c0-4.42 3.58-8 8-8h520c4.42 0 8 3.58 8 8v330c0 4.42-3.58 8-8 8h-520c-4.42 0-8-3.58-8-8z"/></clipPath><clipPath clipPathUnits="userSpaceOnUse" id="cp2"><path d="m0 8c0-4.42 3.58-8 8-8h520c4.42 0 8 3.58 8 8v330c0 4.42-3.58 8-8 8h-520c-4.42 0-8-3.58-8-8z"/></clipPath></defs><style>.a{fill:#e8eaf6}.b{fill:#242a45}.c{opacity:.2;fill:#fff}.d{opacity:.1;fill:#fff}.e{opacity:.7;fill:#fff}.f{opacity:.3;fill:#fff}.g{fill:#fff}.h{opacity:.5;fill:#242a45}.i{fill:#f98e5d}.j{opacity:.3;fill:#242a45}.k{fill:#6ac6d6}.l{fill:#a47ed4}.m{fill:#ec7878}</style><path class="a" d="m0 8c0-4.4 3.6-8 8-8h520c4.4 0 8 3.6 8 8v330c0 4.4-3.6 8-8 8h-520c-4.4 0-8-3.6-8-8z"/><g clip-path="url(#cp1)"><path fill-rule="evenodd" class="b" d="m-3.5 0.2h547v59h-547z"/><path class="c" d="m38.5 46.2c-8.9 0-16-7.2-16-16 0-8.9 7.1-16 16-16 8.8 0 16 7.1 16 16 0 8.8-7.2 16-16 16z"/><path class="d" d="m499.5 46.2c-8.9 0-16-7.2-16-16 0-8.9 7.1-16 16-16 8.8 0 16 7.1 16 16 0 8.8-7.2 16-16 16z"/><path class="e" d="m69.5 23.2c0-1.7 1.3-3 3-3h114c1.6 0 3 1.3 3 3 0 1.7-1.4 3-3 3h-114c-1.7 0-3-1.3-3-3z"/><path class="f" d="m69.5 37.2c0-1.7 1.3-3 3-3h58c1.6 0 3 1.3 3 3 0 1.7-1.4 3-3 3h-58c-1.7 0-3-1.3-3-3z"/></g><g clip-path="url(#cp2)"><path class="g" d="m57 101c0-4.4 3.6-8 8-8h245c4.4 0 8 3.6 8 8v300c0 4.4-3.6 8-8 8h-245c-4.4 0-8-3.6-8-8z"/><path class="g" d="m352 101c0-4.4 3.6-8 8-8h112c4.4 0 8 3.6 8 8v300c0 4.4-3.6 8-8 8h-112c-4.4 0-8-3.6-8-8z"/><path class="h" d="m135.5 134.2c0-1.7 1.3-3 3-3h114c1.6 0 3 1.3 3 3 0 1.7-1.4 3-3 3h-114c-1.7 0-3-1.3-3-3z"/></g><path class="i" d="m104.5 157.2c-8.9 0-16-7.2-16-16 0-8.9 7.1-16 16-16 8.8 0 16 7.1 16 16 0 8.8-7.2 16-16 16z"/><path class="j" d="m372.5 118.2c0-1.7 1.3-3 3-3h82c1.6 0 3 1.3 3 3 0 1.7-1.4 3-3 3h-82c-1.7 0-3-1.3-3-3z"/><path class="j" d="m372.5 138.2c0-1.7 1.3-3 3-3h82c1.6 0 3 1.3 3 3 0 1.7-1.4 3-3 3h-82c-1.7 0-3-1.3-3-3z"/><path class="j" d="m372.5 158.2c0-1.7 1.3-3 3-3h82c1.6 0 3 1.3 3 3 0 1.7-1.4 3-3 3h-82c-1.7 0-3-1.3-3-3z"/><path class="j" d="m372.5 178.2c0-1.7 1.3-3 3-3h82c1.6 0 3 1.3 3 3 0 1.7-1.4 3-3 3h-82c-1.7 0-3-1.3-3-3z"/><path class="j" d="m372.5 212.2c0-1.7 1.3-3 3-3h82c1.6 0 3 1.3 3 3 0 1.7-1.4 3-3 3h-82c-1.7 0-3-1.3-3-3z"/><path class="j" d="m372.5 232.2c0-1.7 1.3-3 3-3h82c1.6 0 3 1.3 3 3 0 1.7-1.4 3-3 3h-82c-1.7 0-3-1.3-3-3z"/><path class="j" d="m372.5 252.2c0-1.7 1.3-3 3-3h82c1.6 0 3 1.3 3 3 0 1.7-1.4 3-3 3h-82c-1.7 0-3-1.3-3-3z"/><path class="j" d="m135.5 148.2c0-1.7 1.3-3 3-3h58c1.6 0 3 1.3 3 3 0 1.7-1.4 3-3 3h-58c-1.7 0-3-1.3-3-3z"/><path class="k" d="m104.5 213.2c-8.9 0-16-7.2-16-16 0-8.9 7.1-16 16-16 8.8 0 16 7.1 16 16 0 8.8-7.2 16-16 16z"/><path class="h" d="m135.5 190.2c0-1.7 1.3-3 3-3h114c1.6 0 3 1.3 3 3 0 1.7-1.4 3-3 3h-114c-1.7 0-3-1.3-3-3z"/><path class="j" d="m135.5 204.2c0-1.7 1.3-3 3-3h58c1.6 0 3 1.3 3 3 0 1.7-1.4 3-3 3h-58c-1.7 0-3-1.3-3-3z"/><path class="l" d="m104.5 269.2c-8.9 0-16-7.2-16-16 0-8.9 7.1-16 16-16 8.8 0 16 7.1 16 16 0 8.8-7.2 16-16 16z"/><path class="h" d="m135.5 246.2c0-1.7 1.3-3 3-3h114c1.6 0 3 1.3 3 3 0 1.7-1.4 3-3 3h-114c-1.7 0-3-1.3-3-3z"/><path class="j" d="m135.5 260.2c0-1.7 1.3-3 3-3h58c1.6 0 3 1.3 3 3 0 1.7-1.4 3-3 3h-58c-1.7 0-3-1.3-3-3z"/><path class="m" d="m104.5 325.2c-8.9 0-16-7.2-16-16 0-8.9 7.1-16 16-16 8.8 0 16 7.1 16 16 0 8.8-7.2 16-16 16z"/><path class="h" d="m135.5 302.2c0-1.7 1.3-3 3-3h114c1.6 0 3 1.3 3 3 0 1.7-1.4 3-3 3h-114c-1.7 0-3-1.3-3-3z"/><path class="j" d="m135.5 316.2c0-1.7 1.3-3 3-3h58c1.6 0 3 1.3 3 3 0 1.7-1.4 3-3 3h-58c-1.7 0-3-1.3-3-3z"/></svg>