<svg version="1.2" xmlns="http://www.w3.org/2000/svg" viewBox="0 0 105 100" width="105" height="100"><style>.a{fill:#e16b5a}.b{fill:#ffd464}.c{fill:#74b340}.d{fill:#fff}.e{fill:#2995cc}.f{fill:#268cbf}</style><path class="a" d="m51.8 0c0 0 30-1.3 45.9 28.3h-48.5c0 0-9.1-0.3-16.9 10.6-2.3 4.5-4.7 9.2-2 18.5-3.9-6.5-20.7-35.2-20.7-35.2 0 0 11.9-21 42.2-22.2z"/><path class="b" d="m96.1 75.1c0 0-13.8 26.1-47.9 24.9 4.2-7.2 24.3-41.2 24.3-41.2 0 0 4.8-7.6-0.9-19.7-2.9-4.2-11.7-8.6-21.3-10.9 7.7-0.1 47.3 0 47.3 0 0 0 12.6 20.6-1.5 46.9z"/><path class="c" d="m7.6 75.3c0 0-16.1-24.8 2-53.1l24.3 41.1c0 0 4.3 8 17.8 9.1 5.1-0.3 10.5-0.6 17.3-7.6-3.7 6.6-20.7 35.2-20.7 35.2 0 0-24.5 0.4-40.7-24.7z"/><path class="d" d="m51.6 73.1c-12.7 0-23-10.2-23-22.7 0-12.5 10.3-22.6 23-22.6 12.8 0 23.1 10.1 23.1 22.6 0 12.5-10.3 22.7-23.1 22.7z"/><path class="e" d="m51.6 68.4c-10.1 0-18.3-8.1-18.3-18 0-9.9 8.2-18 18.3-18 10.2 0 18.3 8.1 18.3 18 0 9.9-8.1 18-18.3 18z"/><path class="f" d="m51.6 32.4q-0.5 0-1 0.1c9.6 0.5 17.2 8.3 17.2 17.9 0 9.6-7.6 17.4-17.2 17.9q0.5 0.1 1 0.1c10.1 0 18.3-8.1 18.3-18 0-9.9-8.2-18-18.3-18z"/></svg>